<svg width="525" height="40" viewBox="0 0 525 40" fill="none" xmlns="http://www.w3.org/2000/svg">
<path fill-rule="evenodd" clip-rule="evenodd" d="M0 37.0426H6.91793V1.8331H0V0.409165H24.8268C30.119 0.409165 36.4288 0.610911 41.3087 2.44419C44.5659 3.86813 46.3963 6.92068 46.3963 9.77148C46.3963 12.6223 44.5689 14.2479 41.9198 16.0812C40.4959 17.0987 39.683 17.3005 37.4433 17.9116C40.4959 18.318 42.5309 18.9291 45.3788 20.5577C48.4313 22.5898 49.6535 25.4465 49.6535 28.2914C49.6535 31.5457 47.4138 34.6012 43.3438 36.0251C37.2387 38.2648 30.1161 38.4695 23.6016 38.4695H0V37.0426ZM18.7217 37.0426H23.8092C28.081 37.0426 31.5429 36.2268 34.1891 35.4082C36.4288 34.1918 38.6685 32.1539 38.6685 28.2856C38.6685 23.8091 37.4463 20.7595 32.5604 19.1279C30.119 18.5198 18.9263 18.7215 18.7246 18.7215L18.7217 37.0426ZM18.7217 17.0958C24.0139 17.0958 29.7097 17.2976 31.9494 16.4847C35.2066 15.0608 36.4288 13.6339 36.4288 9.56388C36.2241 6.10492 35.0019 4.27162 32.9669 3.25411C30.5283 2.03485 26.66 1.83018 22.59 1.83018H18.7217V17.0958ZM200.249 37.0426H207.166V1.8331H200.249V0.409165H225.075C230.368 0.409165 236.674 0.610911 241.56 2.44419C245.019 3.86813 246.648 6.92068 246.648 9.77148C246.648 12.6223 245.019 14.2479 242.171 16.0812C240.747 17.0987 239.932 17.3005 237.695 17.9116C240.747 18.318 242.782 18.9291 245.835 20.5577C248.686 22.5898 249.905 25.4465 249.905 28.2914C249.905 31.5457 247.665 34.6012 243.8 36.0251C237.698 38.2648 230.37 38.4695 223.856 38.4695H200.251L200.249 37.0426ZM219.175 37.0426H224.058C228.534 37.0426 231.791 36.2268 234.438 35.4082C236.879 34.1918 238.914 32.1539 238.914 28.2856C238.914 23.8091 237.897 20.7595 232.809 19.1279C230.368 18.5198 219.175 18.7215 219.175 18.7215V37.0426ZM219.175 17.0958C224.467 17.0958 229.961 17.2976 232.201 16.4847C235.455 15.0608 236.677 13.6339 236.677 9.56388C236.677 6.10492 235.253 4.27162 233.218 3.25411C230.777 2.03485 226.909 1.83018 223.043 1.83018H219.178L219.175 17.0958ZM68.7845 28.692V1.83018H60.8462V0.406243H87.0998V1.83018H79.3661V28.4902C79.3661 31.1334 80.5854 32.762 82.8251 34.3906C84.863 36.2239 87.5062 37.0397 92.5938 37.0397C98.4942 37.0397 102.769 35.8175 105.21 33.5778C107.856 31.5398 109.076 28.8937 108.871 26.2505V1.82725H101.342V0.40332H119.657V1.82725H111.924V26.4493C111.924 30.1159 110.295 33.5778 106.836 35.8146C103.175 38.0543 99.1024 39.2765 92.3891 39.2765C86.0794 39.2765 78.7521 38.4607 74.685 36.6274C70.8196 34.9988 68.7845 32.3556 68.7845 28.8937V28.692ZM138.18 37.0426V1.8331H130.446V0.409165H159.75C166.057 0.610913 169.314 0.409163 173.79 2.03777C176.843 3.25703 178.878 5.70142 178.878 9.36506C178.878 16.6923 172.162 17.5052 167.483 18.5227C171.553 18.7244 173.793 19.5402 176.436 20.5577C179.082 21.9787 180.302 24.2184 180.913 25.6453C181.524 27.6774 181.319 30.1218 181.319 32.1568C181.726 35.8233 183.559 37.4519 187.018 37.0455C188.035 36.8408 188.647 36.4344 189.459 35.8233L190.48 37.4519C188.522 38.8246 186.147 39.4729 183.764 39.2852C179.895 39.2852 176.846 38.6741 174.401 37.2473C171.96 35.8263 170.536 33.7854 169.925 30.9375C169.518 28.499 169.723 26.2593 168.907 23.8149C167.483 20.1542 162.393 19.3384 159.139 19.3384H149.776V37.0484H157.715V38.4695H130.04V37.0484H138.18V37.0426ZM149.779 17.5022H159.954C164.84 17.5022 167.89 15.4672 167.89 9.36213C167.89 4.47923 163.82 1.8331 159.548 1.8331H149.776L149.779 17.5022ZM407.216 37.0426V1.8331H399.482V0.409165H428.783C435.093 0.610913 438.347 0.409163 442.619 2.03777C445.873 3.25703 447.914 5.70142 447.914 9.36506C447.914 16.6923 441.198 17.5052 436.315 18.5227C440.587 18.7244 442.826 19.5402 445.268 20.5577C448.113 21.9787 449.335 24.2184 449.744 25.6453C450.554 27.6774 450.349 30.1218 450.349 32.1568C450.554 35.8233 452.589 37.4519 456.048 37.0455C457.066 36.8408 457.677 36.4344 458.288 35.8233L459.305 37.4519C457.478 38.873 455.033 39.4841 452.589 39.2852C448.928 39.2852 445.873 38.6741 443.434 37.2473C440.99 35.8263 439.361 33.7854 438.958 30.9375C438.546 28.499 438.753 26.2593 437.736 23.8149C436.514 20.1542 431.426 19.3384 427.964 19.3384H418.809V37.0484H426.748V38.4695H399.067V37.0484H407.216V37.0426ZM418.815 17.5022H428.786C433.669 17.5022 436.923 15.4672 436.923 9.36213C436.923 4.47923 432.856 1.8331 428.379 1.8331H418.815V17.5022ZM337.821 37.0426V1.8331H330.087V0.409165H359.387C365.905 0.610913 368.951 0.409163 373.431 2.03777C376.486 3.25703 378.726 5.70142 378.726 9.36506C378.726 16.6923 372.01 17.5052 367.121 18.5227C371.194 18.7244 373.431 19.5402 376.074 20.5577C378.723 21.9787 379.939 24.2184 380.55 25.6453C381.366 27.6774 380.963 30.1218 380.963 32.1568C381.369 35.8233 383.401 37.4519 386.655 37.0455C387.679 36.8408 388.284 36.4344 389.1 35.8233L390.117 37.4519C388.284 38.873 385.641 39.4841 383.401 39.2852C379.536 39.2852 376.486 38.6741 374.042 37.2473C371.597 35.8263 370.176 33.7854 369.565 30.9375C369.159 28.499 369.361 26.2593 368.548 23.8149C367.121 20.1542 362.03 19.3384 358.776 19.3384H349.417V37.0484H357.554V38.4695H329.675V37.0484H337.821V37.0426ZM349.417 17.5022H359.592C364.475 17.5022 367.53 15.4672 367.53 9.36213C367.53 4.47923 363.457 1.8331 359.185 1.8331H349.414V17.5022H349.417ZM263.133 37.0426H270.869V1.8331H263.133V0.409165H311.362V11.8065H309.535C308.719 8.75396 306.684 4.88564 304.24 3.25703C302.611 2.23952 299.968 1.8331 295.491 1.8331H282.465V17.9116C285.521 17.9116 289.588 18.1133 292.231 16.8941C294.269 15.8766 295.693 13.6369 296.102 11.1954H298.135V26.4552H296.102C295.69 23.6103 294.064 21.777 292.029 20.7624C289.997 19.9466 286.123 19.9466 282.465 19.9466V37.0455H297.12C303.424 37.0455 305.664 36.2298 308.108 34.8058C310.348 33.1714 312.584 29.1072 313.196 25.4465H314.824V38.4665H263.133V37.0426ZM478.439 37.0426H487.392V20.5548L469.483 1.8331H461.957V0.409165H491.258V1.8331H482.305L497.164 18.5227L512.628 1.8331H502.251V0.409165H524.02V1.8331H515.883L498.79 20.5548V37.0426H507.742V38.4636H478.436L478.439 37.0426Z" fill="black"/>
</svg>
