<svg width="68" height="36" viewBox="0 0 68 36" fill="none" xmlns="http://www.w3.org/2000/svg">
<path fill-rule="evenodd" clip-rule="evenodd" d="M41.087 21.0732C44.8611 21.0732 47.9207 24.1328 47.9207 27.9069C47.9207 31.681 44.8611 34.7405 41.087 34.7405H8.84484C7.05958 34.7405 5.43422 34.056 4.21693 32.935C4.20188 33.0395 4.18766 33.1475 4.17447 33.2591C3.89622 35.6141 1.27614 36.0627 0.00087738 35.9926C0.00087738 35.9926 2.01125 34.5729 2.01125 28.4752C2.01819 28.4648 2.0251 28.4545 2.03201 28.4442C2.01822 28.2669 2.01119 28.0877 2.01119 27.9069C2.01119 24.1328 5.07073 21.0732 8.84485 21.0732H41.087Z" fill="white"/>
<path fill-rule="evenodd" clip-rule="evenodd" d="M26.9136 0C23.1396 0 20.0801 3.05949 20.0801 6.83357C20.0801 10.6076 23.1396 13.6671 26.9136 13.6671H59.1559C60.9413 13.6671 62.5667 12.9825 63.784 11.8613C63.7991 11.9659 63.8134 12.074 63.8266 12.1858C64.1048 14.5408 66.7249 14.9893 68.0001 14.9192C68.0001 14.9192 65.9898 13.4996 65.9898 7.40191C65.9827 7.39136 65.9757 7.38088 65.9687 7.37046C65.9825 7.19331 65.9895 7.01426 65.9895 6.83357C65.9895 3.05949 62.93 0 59.1559 0H26.9136Z" fill="#40F988"/>
</svg>
