<svg width="78" height="78" viewBox="0 0 78 78" fill="none" xmlns="http://www.w3.org/2000/svg">
<rect width="78" height="78" rx="10" fill="black"/>
<path d="M63.7116 38.2118C62.3836 38.2118 61.0556 38.9478 61.0556 40.5318V44.4998H58.9436V36.4998H61.0556V38.2758C61.6156 37.2358 62.7996 36.2598 64.3196 36.2598C66.4956 36.2598 67.7436 37.6998 67.7436 39.8758V44.4998H65.6316V40.1318C65.6316 38.9958 64.9756 38.2118 63.7116 38.2118Z" fill="white"/>
<path d="M51.6149 36.228C54.2869 36.228 56.5909 37.748 56.5909 40.42C56.5909 42.82 54.5109 44.788 51.6149 44.788C48.7189 44.788 46.6389 42.82 46.6389 40.42C46.6389 37.748 48.9429 36.228 51.6149 36.228ZM51.6149 38.068C49.9509 38.068 48.7669 38.932 48.7669 40.42C48.7669 41.764 50.0309 42.964 51.6149 42.964C53.1989 42.964 54.4629 41.764 54.4629 40.42C54.4629 38.932 53.2789 38.068 51.6149 38.068Z" fill="white"/>
<path d="M37.8538 38.3401V36.6601L39.4378 36.5641L39.7258 34.1001H41.4858V36.5001H44.8138V38.3401H41.4858V41.3641C41.4858 42.2281 41.9498 42.8201 42.7818 42.8201C43.4058 42.8201 44.1098 42.5641 44.6218 42.2441L45.0858 44.0521C44.4138 44.4041 43.2778 44.7721 42.4298 44.7721C40.4458 44.7721 39.3738 43.4601 39.3738 41.4441V38.3401H37.8538Z" fill="white"/>
<path d="M31.4047 36.228C34.0767 36.228 36.3807 37.748 36.3807 40.42C36.3807 42.82 34.3007 44.788 31.4047 44.788C28.5087 44.788 26.4287 42.82 26.4287 40.42C26.4287 37.748 28.7327 36.228 31.4047 36.228ZM31.4047 38.068C29.7407 38.068 28.5567 38.932 28.5567 40.42C28.5567 41.764 29.8207 42.964 31.4047 42.964C32.9887 42.964 34.2527 41.764 34.2527 40.42C34.2527 38.932 33.0687 38.068 31.4047 38.068Z" fill="white"/>
<path d="M19.6279 36.228C22.2999 36.228 24.6039 37.748 24.6039 40.42C24.6039 42.82 22.5239 44.788 19.6279 44.788C16.7319 44.788 14.6519 42.82 14.6519 40.42C14.6519 37.748 16.9559 36.228 19.6279 36.228ZM19.6279 38.068C17.9639 38.068 16.7799 38.932 16.7799 40.42C16.7799 41.764 18.0439 42.964 19.6279 42.964C21.2119 42.964 22.4759 41.764 22.4759 40.42C22.4759 38.932 21.2919 38.068 19.6279 38.068Z" fill="white"/>
<path d="M12.296 44.5H10.2V32.5H12.296V44.5Z" fill="white"/>
</svg>
