<svg width="119" height="40" viewBox="0 0 119 40" fill="none" xmlns="http://www.w3.org/2000/svg">
<path d="M108.512 18.424C105.878 18.424 103.244 19.896 103.244 23.064V31H99.0552V15H103.244V18.552C104.355 16.472 106.703 14.52 109.718 14.52C114.033 14.52 116.509 17.4 116.509 21.752V31H112.32V22.264C112.32 19.992 111.019 18.424 108.512 18.424Z" fill="white"/>
<path d="M84.5195 14.4561C89.8189 14.4561 94.3885 17.4961 94.3885 22.8401C94.3885 27.6401 90.2632 31.5761 84.5195 31.5761C78.7757 31.5761 74.6504 27.6401 74.6504 22.8401C74.6504 17.4961 79.22 14.4561 84.5195 14.4561ZM84.5195 18.1361C81.2192 18.1361 78.8709 19.8641 78.8709 22.8401C78.8709 25.5281 81.3779 27.9281 84.5195 27.9281C87.6611 27.9281 90.168 25.5281 90.168 22.8401C90.168 19.8641 87.8197 18.1361 84.5195 18.1361Z" fill="white"/>
<path d="M57.2266 18.6802V15.3202L60.3682 15.1282L60.9394 10.2002H64.43V15.0002H71.0306V18.6802H64.43V24.7282C64.43 26.4562 65.3503 27.6402 67.0004 27.6402C68.238 27.6402 69.6343 27.1282 70.6498 26.4882L71.57 30.1042C70.2372 30.8082 67.9842 31.5442 66.3023 31.5442C62.3674 31.5442 60.2412 28.9202 60.2412 24.8882V18.6802H57.2266Z" fill="white"/>
<path d="M44.4363 14.4561C49.7358 14.4561 54.3054 17.4961 54.3054 22.8401C54.3054 27.6401 50.1801 31.5761 44.4363 31.5761C38.6926 31.5761 34.5673 27.6401 34.5673 22.8401C34.5673 17.4961 39.1369 14.4561 44.4363 14.4561ZM44.4363 18.1361C41.1361 18.1361 38.7878 19.8641 38.7878 22.8401C38.7878 25.5281 41.2947 27.9281 44.4363 27.9281C47.5779 27.9281 50.0849 25.5281 50.0849 22.8401C50.0849 19.8641 47.7366 18.1361 44.4363 18.1361Z" fill="white"/>
<path d="M21.0789 14.4561C26.3784 14.4561 30.948 17.4961 30.948 22.8401C30.948 27.6401 26.8226 31.5761 21.0789 31.5761C15.3352 31.5761 11.2098 27.6401 11.2098 22.8401C11.2098 17.4961 15.7794 14.4561 21.0789 14.4561ZM21.0789 18.1361C17.7786 18.1361 15.4304 19.8641 15.4304 22.8401C15.4304 25.5281 17.9373 27.9281 21.0789 27.9281C24.2205 27.9281 26.7274 25.5281 26.7274 22.8401C26.7274 19.8641 24.3792 18.1361 21.0789 18.1361Z" fill="white"/>
<path d="M6.53707 31H2.38V7H6.53707V31Z" fill="white"/>
</svg>
